<svg width="315" height="80" viewBox="0 0 315 80" fill="none" xmlns="http://www.w3.org/2000/svg">
<path d="M52.0334 16.44C51.6068 17.24 50.8868 17.9867 49.8734 18.68C48.8601 19.3733 47.6334 19.8267 46.1934 20.04C45.9268 18.76 45.4734 17.4533 44.8334 16.12C44.2468 14.7333 43.3668 13.48 42.1934 12.36C41.0734 11.24 39.6334 10.3067 37.8734 9.56C36.1668 8.81333 34.0601 8.44 31.5534 8.44C29.3134 8.44 27.0734 8.89333 24.8334 9.8C22.5934 10.6533 20.5668 12.04 18.7534 13.96C16.9401 15.88 15.4468 18.3867 14.2734 21.48C13.1534 24.52 12.5934 28.2267 12.5934 32.6C12.5934 36.92 13.1801 40.76 14.3534 44.12C15.5268 47.48 17.1268 50.3067 19.1534 52.6C21.1801 54.84 23.5268 56.5467 26.1934 57.72C28.9134 58.8933 31.8201 59.48 34.9134 59.48C38.4868 59.48 41.5001 58.8933 43.9534 57.72C46.4601 56.4933 48.5668 54.8933 50.2734 52.92C50.5934 53.0267 50.9668 53.24 51.3934 53.56C51.8201 53.88 52.0868 54.2 52.1934 54.52C51.7668 55.2667 51.0734 56.2 50.1134 57.32C49.1534 58.44 47.8468 59.5333 46.1934 60.6C44.5934 61.6133 42.5668 62.4933 40.1134 63.24C37.7134 64.04 34.8334 64.44 31.4734 64.44C28.1668 64.44 24.9668 63.8533 21.8734 62.68C18.7801 61.4533 16.0334 59.64 13.6334 57.24C11.2334 54.7867 9.31344 51.7467 7.87344 48.12C6.43344 44.44 5.71344 40.1733 5.71344 35.32C5.71344 31.0533 6.48677 27.0533 8.03344 23.32C9.5801 19.5333 11.6601 16.2533 14.2734 13.48C16.9401 10.7067 20.0068 8.52 23.4734 6.92C26.9934 5.32 30.7268 4.52 34.6734 4.52C37.8734 4.52 40.5668 4.97333 42.7534 5.88C44.9934 6.78666 46.7801 7.88 48.1134 9.16C49.5001 10.44 50.4868 11.7733 51.0734 13.16C51.7134 14.4933 52.0334 15.5867 52.0334 16.44Z" fill="#408F95"/>
<path d="M67.8797 40.68C67.8797 44.04 68.2797 46.9733 69.0797 49.48C69.933 51.9867 71.0264 54.0933 72.3597 55.8C73.7464 57.4533 75.3197 58.7067 77.0797 59.56C78.893 60.4133 80.7864 60.84 82.7597 60.84C87.0264 60.84 90.2797 59.4267 92.5197 56.6C94.7597 53.72 95.8797 49.4 95.8797 43.64C95.8797 40.8667 95.5597 38.28 94.9197 35.88C94.2797 33.48 93.3197 31.4 92.0397 29.64C90.813 27.88 89.293 26.4933 87.4797 25.48C85.6664 24.4667 83.5864 23.96 81.2397 23.96C79.533 23.96 77.8797 24.28 76.2797 24.92C74.6797 25.56 73.2664 26.5733 72.0397 27.96C70.813 29.2933 69.7997 31.0267 68.9997 33.16C68.253 35.24 67.8797 37.7467 67.8797 40.68ZM61.1597 43.16C61.1597 39.9067 61.7464 36.8933 62.9197 34.12C64.093 31.2933 65.6664 28.8933 67.6397 26.92C69.6664 24.8933 72.013 23.32 74.6797 22.2C77.3997 21.0267 80.2797 20.44 83.3197 20.44C86.6264 20.44 89.4797 21 91.8797 22.12C94.333 23.24 96.333 24.7333 97.8797 26.6C99.4797 28.4667 100.653 30.6533 101.4 33.16C102.2 35.6667 102.6 38.3067 102.6 41.08C102.6 44.3333 102.093 47.3733 101.08 50.2C100.066 53.0267 98.5997 55.5067 96.6797 57.64C94.813 59.72 92.5197 61.3733 89.7997 62.6C87.0797 63.8267 83.9864 64.44 80.5197 64.44C77.9597 64.44 75.5064 63.96 73.1597 63C70.813 62.04 68.733 60.6533 66.9197 58.84C65.1597 57.0267 63.7464 54.8133 62.6797 52.2C61.6664 49.5333 61.1597 46.52 61.1597 43.16ZM144.034 38.04C144.034 33.5067 143.101 30.2 141.234 28.12C139.367 25.9867 136.727 24.92 133.314 24.92C132.087 24.92 130.861 25.16 129.634 25.64C128.461 26.0667 127.314 26.6533 126.194 27.4C125.127 28.1467 124.114 29.0267 123.154 30.04C122.194 31 121.341 32.0133 120.594 33.08V62.36C119.847 62.7867 118.861 63.08 117.634 63.24C116.461 63.4533 115.341 63.56 114.274 63.56V22.6C116.034 21.6933 118.007 21.24 120.194 21.24V29.16C120.887 28.2533 121.767 27.2933 122.834 26.28C123.954 25.2133 125.181 24.2533 126.514 23.4C127.901 22.5467 129.394 21.8533 130.994 21.32C132.647 20.7333 134.407 20.44 136.274 20.44C140.594 20.44 144.007 21.7467 146.514 24.36C149.074 26.9733 150.354 30.7067 150.354 35.56V62.36C149.607 62.7867 148.621 63.08 147.394 63.24C146.221 63.4533 145.101 63.56 144.034 63.56V38.04ZM159.299 24.52C159.726 23.9333 160.392 23.4 161.299 22.92C162.259 22.3867 163.299 22.12 164.419 22.12H166.979V10.6C167.832 9.90666 168.819 9.4 169.939 9.08C171.112 8.70666 172.232 8.52 173.299 8.52V22.12H188.979C188.926 23.0267 188.659 23.8 188.179 24.44C187.752 25.0267 187.192 25.32 186.499 25.32H173.299V51.56C173.299 53.2667 173.486 54.6533 173.859 55.72C174.286 56.7333 174.846 57.5333 175.539 58.12C176.232 58.7067 177.032 59.1067 177.939 59.32C178.846 59.5333 179.779 59.64 180.739 59.64C182.499 59.64 183.966 59.2933 185.139 58.6C186.312 57.9067 187.272 57.1867 188.019 56.44C188.766 56.6533 189.246 57.1067 189.459 57.8C189.192 58.2267 188.766 58.7867 188.179 59.48C187.592 60.1733 186.819 60.8667 185.859 61.56C184.899 62.2 183.752 62.76 182.419 63.24C181.086 63.72 179.592 63.96 177.939 63.96C176.446 63.96 175.032 63.7733 173.699 63.4C172.366 63.0267 171.192 62.4133 170.179 61.56C169.219 60.7067 168.446 59.56 167.859 58.12C167.272 56.68 166.979 54.8933 166.979 52.76V25.32H159.299V24.52ZM234.32 60.04C234.16 60.3067 233.893 60.6267 233.52 61C233.2 61.3733 232.826 61.7467 232.4 62.12C231.973 62.44 231.493 62.7333 230.96 63C230.48 63.2667 230.026 63.4533 229.6 63.56C227.893 63.4533 226.453 62.8133 225.28 61.64C224.106 60.4133 223.466 58.8133 223.36 56.84C222.933 57.64 222.293 58.4933 221.44 59.4C220.586 60.2533 219.546 61.0533 218.32 61.8C217.146 62.4933 215.786 63.0533 214.24 63.48C212.693 63.96 211.013 64.2 209.2 64.2C205.413 64.2 202.4 63.24 200.16 61.32C197.973 59.4 196.88 56.84 196.88 53.64C196.88 50.3333 198.133 47.56 200.64 45.32C203.146 43.08 207.44 41.4267 213.52 40.36L223.04 38.68V35.56C223.04 31.72 222.133 28.7867 220.32 26.76C218.56 24.7333 215.92 23.72 212.4 23.72C210.213 23.72 208.346 24.28 206.8 25.4C205.306 26.4667 204.56 28.0667 204.56 30.2C204.56 31.16 204.88 32.0133 205.52 32.76C205.04 33.4 204.266 33.9867 203.2 34.52C202.133 35.0533 201.04 35.3733 199.92 35.48C199.653 35.2133 199.333 34.8133 198.96 34.28C198.586 33.7467 198.4 33.0267 198.4 32.12C198.4 30.4667 198.88 28.92 199.84 27.48C200.8 26.04 202.053 24.8133 203.6 23.8C205.146 22.7333 206.933 21.9067 208.96 21.32C210.986 20.7333 213.093 20.44 215.28 20.44C220.4 20.44 224.026 21.6133 226.16 23.96C228.293 26.2533 229.36 29.48 229.36 33.64V53.72C229.36 55.9067 229.84 57.4267 230.8 58.28C231.76 59.08 232.88 59.56 234.16 59.72L234.32 60.04ZM211.76 59.96C214.533 59.96 216.88 59.32 218.8 58.04C220.773 56.76 222.186 55.1067 223.04 53.08V41.56L212.32 43.48C209.44 44.0133 207.226 44.92 205.68 46.2C204.186 47.48 203.44 49.32 203.44 51.72C203.44 54.3867 204.24 56.44 205.84 57.88C207.493 59.2667 209.466 59.96 211.76 59.96ZM276.52 29.88C276.2 30.4667 275.56 31.08 274.6 31.72C273.693 32.36 272.546 32.76 271.16 32.92C271 32.0133 270.68 31.0533 270.2 30.04C269.773 28.9733 269.133 28.0133 268.28 27.16C267.426 26.2533 266.36 25.5333 265.08 25C263.8 24.4133 262.253 24.12 260.44 24.12C258.946 24.12 257.426 24.4133 255.88 25C254.386 25.5867 253.026 26.5467 251.8 27.88C250.573 29.2133 249.56 30.92 248.76 33C248.013 35.08 247.64 37.6133 247.64 40.6C247.64 43.8 248.066 46.6 248.92 49C249.773 51.3467 250.92 53.32 252.36 54.92C253.8 56.4667 255.453 57.64 257.32 58.44C259.24 59.1867 261.24 59.56 263.32 59.56C266.04 59.56 268.333 59.16 270.2 58.36C272.12 57.5067 273.746 56.3067 275.08 54.76C275.4 54.8133 275.72 55 276.04 55.32C276.36 55.64 276.573 55.9333 276.68 56.2C276.253 56.9467 275.586 57.8 274.68 58.76C273.826 59.6667 272.733 60.52 271.4 61.32C270.066 62.12 268.52 62.7867 266.76 63.32C265 63.9067 263 64.2 260.76 64.2C258.093 64.2 255.56 63.7467 253.16 62.84C250.813 61.9333 248.733 60.5733 246.92 58.76C245.16 56.9467 243.746 54.7333 242.68 52.12C241.666 49.5067 241.16 46.4667 241.16 43C241.16 39.96 241.72 37.1067 242.84 34.44C243.96 31.72 245.48 29.3467 247.4 27.32C249.373 25.24 251.693 23.6133 254.36 22.44C257.026 21.2133 259.906 20.6 263 20.6C265.56 20.6 267.693 20.9733 269.4 21.72C271.106 22.4133 272.466 23.2667 273.48 24.28C274.546 25.24 275.32 26.2533 275.8 27.32C276.28 28.3867 276.52 29.24 276.52 29.88ZM282.346 24.52C282.773 23.9333 283.439 23.4 284.346 22.92C285.306 22.3867 286.346 22.12 287.466 22.12H290.026V10.6C290.879 9.90666 291.866 9.4 292.986 9.08C294.159 8.70666 295.279 8.52 296.346 8.52V22.12H312.026C311.973 23.0267 311.706 23.8 311.226 24.44C310.799 25.0267 310.239 25.32 309.546 25.32H296.346V51.56C296.346 53.2667 296.533 54.6533 296.906 55.72C297.333 56.7333 297.893 57.5333 298.586 58.12C299.279 58.7067 300.079 59.1067 300.986 59.32C301.893 59.5333 302.826 59.64 303.786 59.64C305.546 59.64 307.013 59.2933 308.186 58.6C309.359 57.9067 310.319 57.1867 311.066 56.44C311.813 56.6533 312.293 57.1067 312.506 57.8C312.239 58.2267 311.813 58.7867 311.226 59.48C310.639 60.1733 309.866 60.8667 308.906 61.56C307.946 62.2 306.799 62.76 305.466 63.24C304.133 63.72 302.639 63.96 300.986 63.96C299.493 63.96 298.079 63.7733 296.746 63.4C295.413 63.0267 294.239 62.4133 293.226 61.56C292.266 60.7067 291.493 59.56 290.906 58.12C290.319 56.68 290.026 54.8933 290.026 52.76V25.32H282.346V24.52Z" fill="#0D2936"/>
</svg>
